<svg xmlns="http://www.w3.org/2000/svg" xmlns:xlink="http://www.w3.org/1999/xlink" width="1366" zoomAndPan="magnify" viewBox="0 0 1024.5 348.75" height="465" preserveAspectRatio="xMidYMid meet" version="1.0"><defs><g/><clipPath id="4474b21a02"><path d="M 240.941406 32.851562 L 1009.890625 32.851562 L 1009.890625 315.398438 L 240.941406 315.398438 Z M 240.941406 32.851562 " clip-rule="nonzero"/></clipPath><clipPath id="56fa9227c0"><path d="M 267.921875 32.851562 L 982.964844 32.851562 C 990.121094 32.851562 996.984375 35.695312 1002.042969 40.753906 C 1007.105469 45.8125 1009.945312 52.675781 1009.945312 59.832031 L 1009.945312 288.664062 C 1009.945312 295.820312 1007.105469 302.683594 1002.042969 307.742188 C 996.984375 312.800781 990.121094 315.644531 982.964844 315.644531 L 267.921875 315.644531 C 260.765625 315.644531 253.902344 312.800781 248.84375 307.742188 C 243.785156 302.683594 240.941406 295.820312 240.941406 288.664062 L 240.941406 59.832031 C 240.941406 52.675781 243.785156 45.8125 248.84375 40.753906 C 253.902344 35.695312 260.765625 32.851562 267.921875 32.851562 Z M 267.921875 32.851562 " clip-rule="nonzero"/></clipPath><clipPath id="f92f6a1517"><path d="M 27.195312 11.839844 L 351.710938 11.839844 L 351.710938 336.355469 L 27.195312 336.355469 Z M 27.195312 11.839844 " clip-rule="nonzero"/></clipPath><clipPath id="8469ff186d"><path d="M 14.042969 3.488281 L 355.550781 3.488281 L 355.550781 345 L 14.042969 345 Z M 14.042969 3.488281 " clip-rule="nonzero"/></clipPath><clipPath id="28bc08bafe"><path d="M 184.796875 3.488281 C 90.492188 3.488281 14.042969 79.941406 14.042969 174.246094 C 14.042969 268.550781 90.492188 345 184.796875 345 C 279.101562 345 355.550781 268.550781 355.550781 174.246094 C 355.550781 79.941406 279.101562 3.488281 184.796875 3.488281 Z M 184.796875 3.488281 " clip-rule="nonzero"/></clipPath></defs><g clip-path="url(#4474b21a02)"><g clip-path="url(#56fa9227c0)"><path stroke-linecap="butt" transform="matrix(0.749463, 0, 0, 0.749463, 240.941009, 32.851511)" fill="none" stroke-linejoin="miter" d="M 36.000277 0.000068236 L 990.074376 0.000068236 C 999.622883 0.000068236 1008.780485 3.794453 1015.530112 10.54408 C 1022.284951 17.293707 1026.074124 26.451309 1026.074124 35.999816 L 1026.074124 341.32792 C 1026.074124 350.876427 1022.284951 360.034029 1015.530112 366.783656 C 1008.780485 373.533283 999.622883 377.327668 990.074376 377.327668 L 36.000277 377.327668 C 26.45177 377.327668 17.294168 373.533283 10.544541 366.783656 C 3.794914 360.034029 0.000529393 350.876427 0.000529393 341.32792 L 0.000529393 35.999816 C 0.000529393 26.451309 3.794914 17.293707 10.544541 10.54408 C 17.294168 3.794453 26.45177 0.000068236 36.000277 0.000068236 Z M 36.000277 0.000068236 " stroke="#ffffff" stroke-width="30" stroke-opacity="1" stroke-miterlimit="4"/></g></g><g clip-path="url(#f92f6a1517)"><path fill="#212529" d="M 352.015625 174.25 C 352.015625 176.90625 351.953125 179.5625 351.820312 182.21875 C 351.691406 184.875 351.496094 187.523438 351.234375 190.167969 C 350.972656 192.8125 350.648438 195.449219 350.257812 198.078125 C 349.867188 200.707031 349.414062 203.328125 348.894531 205.933594 C 348.378906 208.539062 347.796875 211.132812 347.148438 213.710938 C 346.503906 216.289062 345.792969 218.851562 345.023438 221.394531 C 344.25 223.9375 343.417969 226.460938 342.523438 228.964844 C 341.628906 231.464844 340.671875 233.945312 339.652344 236.402344 C 338.636719 238.855469 337.558594 241.285156 336.421875 243.6875 C 335.285156 246.089844 334.09375 248.464844 332.839844 250.808594 C 331.585938 253.152344 330.277344 255.464844 328.910156 257.746094 C 327.542969 260.023438 326.121094 262.269531 324.644531 264.480469 C 323.167969 266.691406 321.636719 268.863281 320.054688 270.996094 C 318.472656 273.132812 316.835938 275.226562 315.152344 277.28125 C 313.464844 279.335938 311.730469 281.347656 309.945312 283.316406 C 308.160156 285.285156 306.328125 287.210938 304.449219 289.089844 C 302.566406 290.96875 300.644531 292.800781 298.675781 294.585938 C 296.703125 296.371094 294.691406 298.109375 292.636719 299.792969 C 290.582031 301.480469 288.488281 303.117188 286.355469 304.699219 C 284.21875 306.28125 282.046875 307.8125 279.835938 309.289062 C 277.625 310.765625 275.382812 312.1875 273.101562 313.554688 C 270.820312 314.921875 268.507812 316.230469 266.164062 317.484375 C 263.820312 318.734375 261.449219 319.929688 259.046875 321.066406 C 256.640625 322.203125 254.214844 323.28125 251.757812 324.296875 C 249.300781 325.3125 246.824219 326.269531 244.320312 327.167969 C 241.816406 328.0625 239.292969 328.894531 236.75 329.667969 C 234.207031 330.4375 231.644531 331.148438 229.066406 331.792969 C 226.488281 332.4375 223.898438 333.019531 221.289062 333.539062 C 218.683594 334.058594 216.066406 334.511719 213.4375 334.902344 C 210.808594 335.292969 208.167969 335.617188 205.523438 335.878906 C 202.878906 336.136719 200.230469 336.335938 197.574219 336.464844 C 194.917969 336.59375 192.261719 336.660156 189.605469 336.660156 C 186.949219 336.660156 184.292969 336.59375 181.636719 336.464844 C 178.980469 336.335938 176.332031 336.136719 173.6875 335.878906 C 171.042969 335.617188 168.402344 335.292969 165.773438 334.902344 C 163.144531 334.511719 160.527344 334.058594 157.921875 333.539062 C 155.3125 333.019531 152.722656 332.4375 150.144531 331.792969 C 147.566406 331.148438 145.003906 330.4375 142.460938 329.667969 C 139.917969 328.894531 137.394531 328.0625 134.890625 327.167969 C 132.386719 326.269531 129.910156 325.3125 127.453125 324.296875 C 124.996094 323.28125 122.570312 322.203125 120.164062 321.066406 C 117.761719 319.929688 115.390625 318.734375 113.046875 317.484375 C 110.703125 316.230469 108.390625 314.921875 106.109375 313.554688 C 103.828125 312.1875 101.585938 310.765625 99.375 309.289062 C 97.164062 307.8125 94.992188 306.28125 92.859375 304.699219 C 90.722656 303.117188 88.628906 301.480469 86.574219 299.792969 C 84.519531 298.109375 82.507812 296.371094 80.535156 294.585938 C 78.566406 292.800781 76.644531 290.96875 74.765625 289.089844 C 72.882812 287.210938 71.050781 285.285156 69.265625 283.316406 C 67.480469 281.347656 65.746094 279.335938 64.058594 277.28125 C 62.375 275.226562 60.738281 273.132812 59.15625 270.996094 C 57.574219 268.863281 56.042969 266.691406 54.566406 264.480469 C 53.089844 262.269531 51.667969 260.023438 50.300781 257.746094 C 48.933594 255.464844 47.625 253.152344 46.371094 250.808594 C 45.117188 248.464844 43.925781 246.089844 42.789062 243.6875 C 41.652344 241.285156 40.574219 238.855469 39.558594 236.402344 C 38.539062 233.945312 37.582031 231.464844 36.6875 228.964844 C 35.792969 226.460938 34.960938 223.9375 34.1875 221.394531 C 33.417969 218.851562 32.707031 216.289062 32.0625 213.710938 C 31.417969 211.132812 30.832031 208.539062 30.316406 205.933594 C 29.796875 203.328125 29.34375 200.707031 28.953125 198.078125 C 28.5625 195.449219 28.238281 192.8125 27.976562 190.167969 C 27.714844 187.523438 27.519531 184.875 27.390625 182.21875 C 27.261719 179.5625 27.195312 176.90625 27.195312 174.25 C 27.195312 171.589844 27.261719 168.933594 27.390625 166.28125 C 27.519531 163.625 27.714844 160.976562 27.976562 158.332031 C 28.238281 155.683594 28.5625 153.046875 28.953125 150.417969 C 29.34375 147.789062 29.796875 145.171875 30.316406 142.5625 C 30.832031 139.957031 31.417969 137.363281 32.0625 134.785156 C 32.707031 132.207031 33.417969 129.648438 34.1875 127.105469 C 34.960938 124.558594 35.792969 122.039062 36.6875 119.535156 C 37.582031 117.03125 38.539062 114.554688 39.558594 112.097656 C 40.574219 109.640625 41.652344 107.210938 42.789062 104.808594 C 43.925781 102.40625 45.117188 100.035156 46.371094 97.6875 C 47.625 95.34375 48.933594 93.03125 50.300781 90.753906 C 51.667969 88.472656 53.089844 86.226562 54.566406 84.019531 C 56.042969 81.808594 57.574219 79.636719 59.15625 77.5 C 60.738281 75.367188 62.375 73.269531 64.058594 71.214844 C 65.746094 69.164062 67.480469 67.148438 69.265625 65.179688 C 71.050781 63.210938 72.882812 61.285156 74.765625 59.40625 C 76.644531 57.527344 78.566406 55.695312 80.535156 53.910156 C 82.507812 52.125 84.519531 50.390625 86.574219 48.703125 C 88.628906 47.019531 90.722656 45.382812 92.859375 43.800781 C 94.992188 42.214844 97.164062 40.6875 99.375 39.210938 C 101.585938 37.734375 103.828125 36.3125 106.109375 34.945312 C 108.390625 33.578125 110.703125 32.269531 113.046875 31.015625 C 115.390625 29.761719 117.761719 28.566406 120.164062 27.429688 C 122.570312 26.296875 124.996094 25.21875 127.453125 24.199219 C 129.910156 23.183594 132.386719 22.226562 134.890625 21.332031 C 137.394531 20.4375 139.917969 19.601562 142.460938 18.832031 C 145.003906 18.058594 147.566406 17.351562 150.144531 16.707031 C 152.722656 16.058594 155.3125 15.476562 157.921875 14.957031 C 160.527344 14.441406 163.144531 13.984375 165.773438 13.597656 C 168.402344 13.207031 171.042969 12.878906 173.6875 12.621094 C 176.332031 12.359375 178.980469 12.164062 181.636719 12.035156 C 184.292969 11.902344 186.949219 11.839844 189.605469 11.839844 C 192.261719 11.839844 194.917969 11.902344 197.574219 12.035156 C 200.230469 12.164062 202.878906 12.359375 205.523438 12.621094 C 208.167969 12.878906 210.808594 13.207031 213.4375 13.597656 C 216.066406 13.984375 218.683594 14.441406 221.289062 14.957031 C 223.898438 15.476562 226.488281 16.058594 229.066406 16.707031 C 231.644531 17.351562 234.207031 18.058594 236.75 18.832031 C 239.292969 19.601562 241.816406 20.4375 244.320312 21.332031 C 246.824219 22.226562 249.300781 23.183594 251.757812 24.199219 C 254.214844 25.21875 256.640625 26.296875 259.046875 27.429688 C 261.449219 28.566406 263.820312 29.761719 266.164062 31.015625 C 268.507812 32.269531 270.820312 33.578125 273.101562 34.945312 C 275.382812 36.3125 277.625 37.734375 279.835938 39.210938 C 282.046875 40.6875 284.21875 42.214844 286.355469 43.800781 C 288.488281 45.382812 290.582031 47.019531 292.636719 48.703125 C 294.691406 50.390625 296.703125 52.125 298.675781 53.910156 C 300.644531 55.695312 302.566406 57.527344 304.449219 59.40625 C 306.328125 61.285156 308.160156 63.210938 309.945312 65.179688 C 311.730469 67.148438 313.464844 69.164062 315.152344 71.214844 C 316.835938 73.269531 318.472656 75.367188 320.054688 77.5 C 321.636719 79.636719 323.167969 81.808594 324.644531 84.019531 C 326.121094 86.226562 327.542969 88.472656 328.910156 90.753906 C 330.277344 93.03125 331.585938 95.34375 332.839844 97.6875 C 334.09375 100.035156 335.285156 102.40625 336.421875 104.808594 C 337.558594 107.210938 338.636719 109.640625 339.652344 112.097656 C 340.671875 114.554688 341.628906 117.03125 342.523438 119.535156 C 343.417969 122.039062 344.25 124.558594 345.023438 127.105469 C 345.792969 129.648438 346.503906 132.207031 347.148438 134.785156 C 347.796875 137.363281 348.378906 139.957031 348.894531 142.5625 C 349.414062 145.171875 349.867188 147.789062 350.257812 150.417969 C 350.648438 153.046875 350.972656 155.683594 351.234375 158.332031 C 351.496094 160.976562 351.691406 163.625 351.820312 166.28125 C 351.953125 168.933594 352.015625 171.589844 352.015625 174.25 Z M 352.015625 174.25 " fill-opacity="1" fill-rule="nonzero"/></g><path fill="#9bc8ff" d="M 118.671875 127.507812 L 150.464844 127.507812 L 150.464844 97.234375 Z M 118.671875 127.507812 " fill-opacity="1" fill-rule="nonzero"/><path fill="#9bc8ff" d="M 172.863281 109.5 L 222.855469 109.5 L 222.855469 127.507812 L 172.863281 127.507812 Z M 172.863281 109.5 " fill-opacity="1" fill-rule="nonzero"/><path fill="#9bc8ff" d="M 238.574219 189.808594 L 236.75 197.070312 C 236.476562 198.15625 235.632812 199 234.546875 199.273438 C 231.371094 200.078125 228.34375 201.332031 225.542969 203.007812 C 224.582031 203.582031 223.386719 203.582031 222.425781 203.007812 L 215.980469 199.15625 C 215.441406 198.832031 214.835938 198.910156 214.394531 199.351562 L 210.121094 203.625 C 209.6875 204.0625 209.613281 204.664062 209.933594 205.199219 L 213.785156 211.648438 C 214.355469 212.609375 214.355469 213.804688 213.785156 214.765625 C 212.109375 217.566406 210.855469 220.59375 210.050781 223.769531 C 209.777344 224.855469 208.925781 225.699219 207.847656 225.972656 L 200.566406 227.804688 C 199.980469 227.957031 199.589844 228.457031 199.589844 229.066406 L 199.589844 235.109375 C 199.589844 235.730469 199.96875 236.21875 200.570312 236.367188 L 207.847656 238.199219 C 208.933594 238.472656 209.777344 239.316406 210.050781 240.402344 C 210.855469 243.585938 212.109375 246.613281 213.777344 249.398438 C 214.355469 250.363281 214.355469 251.558594 213.777344 252.519531 L 209.925781 258.960938 C 209.609375 259.5 209.671875 260.105469 210.109375 260.535156 L 214.390625 264.816406 C 214.832031 265.257812 215.441406 265.34375 215.96875 265.023438 L 222.417969 261.171875 C 222.898438 260.886719 223.4375 260.742188 223.976562 260.742188 C 224.515625 260.742188 225.054688 260.886719 225.539062 261.171875 C 228.335938 262.847656 231.363281 264.101562 234.542969 264.90625 C 235.625 265.179688 236.472656 266.023438 236.742188 267.109375 L 238.574219 274.378906 C 238.730469 274.984375 239.21875 275.367188 239.835938 275.367188 L 245.878906 275.367188 C 246.5 275.367188 246.980469 274.988281 247.136719 274.378906 L 248.96875 267.109375 C 249.242188 266.023438 250.085938 265.179688 251.171875 264.90625 C 254.355469 264.101562 257.382812 262.847656 260.167969 261.179688 C 261.132812 260.601562 262.328125 260.601562 263.289062 261.179688 L 269.734375 265.03125 C 270.265625 265.347656 270.871094 265.277344 271.304688 264.835938 L 275.578125 260.5625 C 276.035156 260.113281 276.105469 259.507812 275.789062 258.96875 L 271.941406 252.523438 C 271.371094 251.5625 271.371094 250.363281 271.941406 249.40625 C 273.609375 246.621094 274.871094 243.59375 275.671875 240.410156 C 275.941406 239.324219 276.789062 238.480469 277.871094 238.207031 L 285.140625 236.375 C 285.753906 236.21875 286.128906 235.738281 286.128906 235.113281 L 286.128906 229.074219 C 286.128906 228.457031 285.746094 227.96875 285.121094 227.804688 L 277.867188 225.972656 C 276.78125 225.699219 275.9375 224.855469 275.664062 223.773438 C 274.859375 220.59375 273.605469 217.566406 271.929688 214.765625 C 271.355469 213.804688 271.355469 212.609375 271.929688 211.648438 L 275.78125 205.203125 C 276.097656 204.671875 276.019531 204.066406 275.578125 203.621094 L 271.3125 199.351562 C 270.871094 198.910156 270.265625 198.839844 269.726562 199.164062 L 263.28125 203.007812 C 262.320312 203.582031 261.117188 203.582031 260.164062 203.007812 C 257.375 201.339844 254.347656 200.078125 251.164062 199.28125 C 250.082031 199.007812 249.234375 198.164062 248.964844 197.078125 L 247.132812 189.796875 C 246.980469 189.199219 246.496094 188.820312 245.871094 188.820312 L 239.828125 188.820312 C 239.230469 188.8125 238.730469 189.203125 238.574219 189.808594 Z M 242.871094 208.617188 C 255.804688 208.617188 266.328125 219.144531 266.328125 232.085938 C 266.328125 245.019531 255.804688 255.546875 242.871094 255.546875 C 229.929688 255.546875 219.398438 245.019531 219.398438 232.085938 C 219.398438 219.144531 229.929688 208.617188 242.871094 208.617188 Z M 242.871094 208.617188 " fill-opacity="1" fill-rule="nonzero"/><path fill="#ffffff" d="M 225.894531 147.484375 L 127.546875 147.484375 C 125.867188 147.484375 124.503906 148.839844 124.503906 150.523438 C 124.503906 152.199219 125.863281 153.566406 127.546875 153.566406 L 225.894531 153.566406 C 227.570312 153.566406 228.933594 152.207031 228.933594 150.523438 C 228.933594 148.839844 227.570312 147.484375 225.894531 147.484375 Z M 225.894531 147.484375 " fill-opacity="1" fill-rule="nonzero"/><path fill="#ffffff" d="M 219.398438 232.085938 C 219.398438 245.019531 229.929688 255.546875 242.871094 255.546875 C 255.804688 255.546875 266.328125 245.019531 266.328125 232.085938 C 266.328125 219.144531 255.804688 208.617188 242.871094 208.617188 C 229.929688 208.617188 219.398438 219.144531 219.398438 232.085938 Z M 242.871094 214.695312 C 252.453125 214.695312 260.253906 222.5 260.253906 232.085938 C 260.253906 241.667969 252.457031 249.472656 242.871094 249.472656 C 233.28125 249.472656 225.480469 241.675781 225.480469 232.085938 C 225.472656 222.5 233.28125 214.695312 242.871094 214.695312 Z M 242.871094 214.695312 " fill-opacity="1" fill-rule="nonzero"/><path fill="#ffffff" d="M 169.824219 133.582031 L 225.894531 133.582031 C 227.570312 133.582031 228.933594 132.222656 228.933594 130.542969 L 228.933594 106.457031 C 228.933594 104.78125 227.578125 103.417969 225.894531 103.417969 L 169.824219 103.417969 C 168.148438 103.417969 166.785156 104.777344 166.785156 106.457031 L 166.785156 130.542969 C 166.789062 132.222656 168.148438 133.582031 169.824219 133.582031 Z M 172.863281 109.5 L 222.855469 109.5 L 222.855469 127.507812 L 172.863281 127.507812 Z M 172.863281 109.5 " fill-opacity="1" fill-rule="nonzero"/><path fill="#ffffff" d="M 187.234375 242.324219 L 127.402344 242.324219 C 125.726562 242.324219 124.363281 243.683594 124.363281 245.367188 C 124.363281 247.042969 125.71875 248.40625 127.402344 248.40625 L 187.234375 248.40625 C 188.910156 248.40625 190.273438 247.046875 190.273438 245.367188 C 190.269531 243.683594 188.910156 242.324219 187.234375 242.324219 Z M 187.234375 242.324219 " fill-opacity="1" fill-rule="nonzero"/><path fill="#ffffff" d="M 127.546875 229.429688 L 185.011719 229.429688 C 186.6875 229.429688 188.054688 228.070312 188.054688 226.390625 C 188.054688 224.714844 186.695312 223.347656 185.011719 223.347656 L 127.546875 223.347656 C 125.867188 223.347656 124.503906 224.707031 124.503906 226.390625 C 124.511719 228.070312 125.867188 229.429688 127.546875 229.429688 Z M 127.546875 229.429688 " fill-opacity="1" fill-rule="nonzero"/><path fill="#ffffff" d="M 225.894531 166.445312 L 127.402344 166.445312 C 125.726562 166.445312 124.363281 167.804688 124.363281 169.488281 C 124.363281 171.164062 125.71875 172.527344 127.402344 172.527344 L 225.894531 172.527344 C 227.570312 172.527344 228.933594 171.167969 228.933594 169.488281 C 228.933594 167.8125 227.570312 166.445312 225.894531 166.445312 Z M 225.894531 166.445312 " fill-opacity="1" fill-rule="nonzero"/><path fill="#ffffff" d="M 193.347656 204.386719 L 127.402344 204.386719 C 125.726562 204.386719 124.363281 205.742188 124.363281 207.425781 C 124.363281 209.101562 125.71875 210.464844 127.402344 210.464844 L 193.347656 210.464844 C 195.023438 210.464844 196.386719 209.109375 196.386719 207.425781 C 196.382812 205.742188 195.023438 204.386719 193.347656 204.386719 Z M 193.347656 204.386719 " fill-opacity="1" fill-rule="nonzero"/><path fill="#ffffff" d="M 202.585938 185.417969 L 127.550781 185.417969 C 125.875 185.417969 124.511719 186.773438 124.511719 188.457031 C 124.511719 190.132812 125.867188 191.496094 127.550781 191.496094 L 202.585938 191.496094 C 204.261719 191.496094 205.625 190.140625 205.625 188.457031 C 205.621094 186.78125 204.261719 185.417969 202.585938 185.417969 Z M 202.585938 185.417969 " fill-opacity="1" fill-rule="nonzero"/><path fill="#ffffff" d="M 90.523438 245.90625 L 108.035156 245.90625 L 108.035156 262.4375 C 108.035156 264.375 109.621094 265.945312 111.5625 265.945312 L 206.929688 265.945312 L 210.101562 269.117188 C 212.5 271.515625 216.203125 271.976562 219.097656 270.242188 L 224.03125 267.296875 C 226.34375 268.539062 228.773438 269.546875 231.292969 270.304688 L 232.695312 275.878906 C 233.539062 279.152344 236.484375 281.445312 239.84375 281.445312 L 245.882812 281.445312 C 249.269531 281.445312 252.210938 279.152344 253.035156 275.867188 L 254.441406 270.3125 C 256.960938 269.550781 259.398438 268.539062 261.703125 267.304688 L 266.632812 270.246094 C 269.550781 271.980469 273.253906 271.515625 275.617188 269.128906 L 279.886719 264.863281 C 282.289062 262.476562 282.757812 258.773438 281.015625 255.855469 L 278.074219 250.933594 C 279.316406 248.625 280.320312 246.195312 281.082031 243.671875 L 286.636719 242.265625 C 289.921875 241.441406 292.214844 238.5 292.214844 235.113281 L 292.214844 229.074219 C 292.214844 225.707031 289.929688 222.769531 286.636719 221.921875 L 281.074219 220.515625 C 280.316406 218.003906 279.300781 215.566406 278.066406 213.253906 L 281.011719 208.328125 C 282.75 205.433594 282.289062 201.730469 279.886719 199.324219 L 275.625 195.0625 C 273.246094 192.660156 269.542969 192.199219 266.621094 193.941406 L 261.695312 196.882812 C 259.390625 195.640625 256.960938 194.636719 254.433594 193.875 L 253.03125 188.300781 C 252.199219 185.027344 249.261719 182.734375 245.878906 182.734375 L 245.242188 182.734375 L 245.242188 90.613281 C 245.242188 88.679688 243.664062 87.105469 241.71875 87.105469 L 224.191406 87.105469 L 224.191406 70.566406 C 224.191406 70.15625 224.109375 69.753906 223.953125 69.382812 L 223.816406 69.066406 C 223.667969 68.707031 223.40625 68.335938 223.128906 68.066406 C 222.984375 67.921875 222.828125 67.796875 222.664062 67.6875 L 222.589844 67.636719 C 222.484375 67.570312 222.355469 67.492188 222.242188 67.441406 C 222.0625 67.351562 221.875 67.277344 221.679688 67.226562 C 221.632812 67.214844 221.585938 67.199219 221.535156 67.1875 L 221.4375 67.148438 C 221.199219 67.089844 220.910156 67.058594 220.664062 67.058594 L 90.523438 67.058594 C 88.574219 67.058594 86.996094 68.628906 86.996094 70.566406 L 86.996094 242.398438 C 86.988281 244.332031 88.574219 245.90625 90.523438 245.90625 Z M 245.882812 188.8125 C 246.507812 188.8125 246.996094 189.191406 247.144531 189.789062 L 248.976562 197.070312 C 249.25 198.15625 250.09375 199 251.179688 199.273438 C 254.363281 200.078125 257.390625 201.332031 260.175781 203.003906 C 261.136719 203.582031 262.332031 203.582031 263.292969 203.003906 L 269.738281 199.15625 C 270.285156 198.832031 270.890625 198.902344 271.324219 199.34375 L 275.59375 203.613281 C 276.035156 204.054688 276.117188 204.664062 275.792969 205.199219 L 271.941406 211.644531 C 271.371094 212.605469 271.371094 213.800781 271.941406 214.761719 C 273.617188 217.5625 274.871094 220.589844 275.675781 223.765625 C 275.949219 224.851562 276.792969 225.695312 277.878906 225.96875 L 285.136719 227.800781 C 285.753906 227.960938 286.144531 228.441406 286.144531 229.066406 L 286.144531 235.109375 C 286.144531 235.730469 285.765625 236.210938 285.15625 236.367188 L 277.886719 238.199219 C 276.800781 238.472656 275.957031 239.316406 275.683594 240.402344 C 274.878906 243.585938 273.625 246.613281 271.953125 249.398438 C 271.375 250.363281 271.375 251.558594 271.953125 252.519531 L 275.800781 258.960938 C 276.117188 259.5 276.046875 260.105469 275.59375 260.554688 L 271.316406 264.828125 C 270.882812 265.269531 270.277344 265.34375 269.746094 265.023438 L 263.300781 261.171875 C 262.339844 260.601562 261.136719 260.601562 260.183594 261.171875 C 257.394531 262.839844 254.367188 264.101562 251.183594 264.902344 C 250.101562 265.171875 249.257812 266.019531 248.984375 267.101562 L 247.152344 274.371094 C 246.996094 274.984375 246.515625 275.359375 245.890625 275.359375 L 239.847656 275.359375 C 239.226562 275.359375 238.746094 274.976562 238.589844 274.371094 L 236.757812 267.101562 C 236.484375 266.019531 235.640625 265.171875 234.554688 264.902344 C 231.378906 264.09375 228.351562 262.839844 225.550781 261.164062 C 225.070312 260.878906 224.53125 260.734375 223.992188 260.734375 C 223.453125 260.734375 222.914062 260.878906 222.433594 261.164062 L 215.980469 265.015625 C 215.453125 265.335938 214.851562 265.257812 214.402344 264.808594 L 210.121094 260.527344 C 209.6875 260.097656 209.621094 259.496094 209.9375 258.957031 L 213.792969 252.511719 C 214.363281 251.550781 214.363281 250.347656 213.792969 249.394531 C 212.121094 246.605469 210.863281 243.578125 210.0625 240.394531 C 209.789062 239.3125 208.945312 238.464844 207.859375 238.195312 L 200.585938 236.363281 C 199.980469 236.207031 199.605469 235.726562 199.605469 235.101562 L 199.605469 229.058594 C 199.605469 228.449219 199.992188 227.949219 200.578125 227.800781 L 207.859375 225.96875 C 208.945312 225.695312 209.789062 224.851562 210.0625 223.765625 C 210.867188 220.589844 212.121094 217.5625 213.796875 214.761719 C 214.371094 213.800781 214.371094 212.605469 213.796875 211.644531 L 209.945312 205.191406 C 209.628906 204.660156 209.699219 204.054688 210.132812 203.621094 L 214.410156 199.34375 C 214.851562 198.902344 215.453125 198.832031 215.992188 199.148438 L 222.4375 203.003906 C 223.398438 203.574219 224.59375 203.574219 225.558594 203.003906 C 228.355469 201.328125 231.382812 200.074219 234.5625 199.265625 C 235.644531 198.992188 236.492188 198.144531 236.761719 197.066406 L 238.589844 189.800781 C 238.746094 189.199219 239.246094 188.808594 239.855469 188.808594 L 245.882812 188.808594 Z M 239.167969 93.1875 L 239.167969 182.773438 C 236.09375 183.058594 233.484375 185.242188 232.691406 188.308594 L 231.285156 193.875 C 228.773438 194.636719 226.335938 195.648438 224.03125 196.882812 L 219.105469 193.941406 C 216.203125 192.199219 212.5 192.652344 210.101562 195.058594 L 205.839844 199.320312 C 203.441406 201.714844 202.988281 205.414062 204.730469 208.316406 L 207.671875 213.246094 C 206.429688 215.558594 205.425781 217.988281 204.664062 220.503906 L 199.070312 221.914062 C 195.804688 222.757812 193.523438 225.699219 193.523438 229.058594 L 193.523438 235.101562 C 193.523438 238.484375 195.808594 241.421875 199.089844 242.253906 L 204.65625 243.65625 C 205.417969 246.175781 206.429688 248.613281 207.664062 250.921875 L 204.722656 255.851562 C 203.976562 257.097656 203.636719 258.496094 203.683594 259.867188 L 114.117188 259.867188 L 114.117188 133.582031 L 153.503906 133.582031 C 155.179688 133.582031 156.546875 132.222656 156.546875 130.542969 L 156.546875 93.179688 L 239.167969 93.179688 Z M 118.671875 127.507812 L 150.464844 97.242188 L 150.464844 127.507812 Z M 93.070312 73.132812 L 218.117188 73.132812 L 218.117188 87.105469 L 153.5 87.105469 C 153.402344 87.105469 153.296875 87.113281 153.199219 87.117188 C 153.148438 87.125 153.101562 87.132812 153.050781 87.136719 C 153.003906 87.144531 152.953125 87.152344 152.90625 87.15625 C 152.847656 87.171875 152.789062 87.183594 152.730469 87.203125 C 152.699219 87.210938 152.660156 87.222656 152.628906 87.230469 C 152.570312 87.25 152.511719 87.269531 152.453125 87.289062 C 152.421875 87.300781 152.386719 87.3125 152.355469 87.328125 C 152.304688 87.347656 152.246094 87.371094 152.191406 87.398438 C 152.160156 87.417969 152.121094 87.429688 152.089844 87.449219 C 152.035156 87.476562 151.992188 87.503906 151.945312 87.535156 C 151.90625 87.554688 151.875 87.582031 151.835938 87.601562 C 151.789062 87.625 151.75 87.65625 151.710938 87.691406 C 151.671875 87.714844 151.632812 87.75 151.59375 87.773438 C 151.554688 87.808594 151.523438 87.839844 151.484375 87.867188 C 151.457031 87.890625 151.425781 87.910156 151.398438 87.9375 L 108.972656 128.332031 C 108.964844 128.339844 108.953125 128.351562 108.945312 128.359375 C 108.90625 128.398438 108.867188 128.441406 108.828125 128.480469 C 108.796875 128.515625 108.769531 128.546875 108.738281 128.578125 C 108.699219 128.625 108.660156 128.675781 108.628906 128.730469 C 108.609375 128.761719 108.582031 128.785156 108.5625 128.820312 C 108.515625 128.882812 108.476562 128.949219 108.445312 129.015625 C 108.433594 129.035156 108.417969 129.054688 108.40625 129.074219 C 108.167969 129.507812 108.03125 130.007812 108.03125 130.542969 L 108.03125 239.824219 L 93.070312 239.824219 Z M 93.070312 73.132812 " fill-opacity="1" fill-rule="nonzero"/><g clip-path="url(#8469ff186d)"><g clip-path="url(#28bc08bafe)"><path stroke-linecap="butt" transform="matrix(0.749463, 0, 0, 0.749463, 14.043546, 3.490079)" fill="none" stroke-linejoin="miter" d="M 227.83432 -0.00239882 C 102.004596 -0.00239882 -0.000769822 102.008179 -0.000769822 227.837903 C -0.000769822 353.667628 102.004596 455.672994 227.83432 455.672994 C 353.664045 455.672994 455.66941 353.667628 455.66941 227.837903 C 455.66941 102.008179 353.664045 -0.00239882 227.83432 -0.00239882 Z M 227.83432 -0.00239882 " stroke="#ffffff" stroke-width="30" stroke-opacity="1" stroke-miterlimit="4"/></g></g><g fill="#ffffff" fill-opacity="1"><g transform="translate(389.152035, 224.772972)"><g><path d="M 6.9375 -53.03125 C 6.9375 -71.007812 11.894531 -84.648438 21.8125 -93.953125 C 31.726562 -103.253906 45.832031 -107.90625 64.125 -107.90625 C 82.414062 -107.90625 96.546875 -103.226562 106.515625 -93.875 C 116.484375 -84.53125 121.46875 -70.914062 121.46875 -53.03125 C 121.46875 -41.101562 119.234375 -31.054688 114.765625 -22.890625 C 110.296875 -14.722656 103.796875 -8.53125 95.265625 -4.3125 L 119.46875 20.1875 L 78.921875 20.1875 L 62.59375 1.84375 C 44.707031 1.539062 30.957031 -3.257812 21.34375 -12.5625 C 11.738281 -21.863281 6.9375 -35.351562 6.9375 -53.03125 Z M 86.640625 -57.96875 C 86.640625 -65.46875 84.710938 -71.425781 80.859375 -75.84375 C 77.003906 -80.257812 71.425781 -82.46875 64.125 -82.46875 C 56.832031 -82.46875 51.285156 -80.257812 47.484375 -75.84375 C 43.679688 -71.425781 41.78125 -65.46875 41.78125 -57.96875 L 41.78125 -48.09375 C 41.78125 -40.59375 43.679688 -34.628906 47.484375 -30.203125 C 51.285156 -25.785156 56.832031 -23.578125 64.125 -23.578125 C 71.425781 -23.578125 77.003906 -25.785156 80.859375 -30.203125 C 84.710938 -34.628906 86.640625 -40.59375 86.640625 -48.09375 Z M 86.640625 -57.96875 "/></g></g></g><g fill="#ffffff" fill-opacity="1"><g transform="translate(517.563261, 224.772972)"><g><path d="M 6.015625 -30.21875 L 6.015625 -54.578125 L 45.328125 -54.578125 L 45.328125 -30.21875 Z M 6.015625 -30.21875 "/></g></g></g><g fill="#ffffff" fill-opacity="1"><g transform="translate(568.896917, 224.772972)"><g><path d="M 57.34375 -106.0625 C 94.445312 -106.0625 113 -88.382812 113 -53.03125 C 113 -17.675781 94.445312 0 57.34375 0 L 11.40625 0 L 11.40625 -106.0625 Z M 45.46875 -25.4375 L 56.734375 -25.4375 C 71.015625 -25.4375 78.15625 -33.09375 78.15625 -48.40625 L 78.15625 -57.65625 C 78.15625 -72.96875 71.015625 -80.625 56.734375 -80.625 L 45.46875 -80.625 Z M 45.46875 -25.4375 "/></g></g></g><g fill="#ffffff" fill-opacity="1"><g transform="translate(688.829604, 224.772972)"><g><path d="M 64.125 -107.90625 C 82.414062 -107.90625 96.546875 -103.226562 106.515625 -93.875 C 116.484375 -84.53125 121.46875 -70.914062 121.46875 -53.03125 C 121.46875 -35.144531 116.484375 -21.523438 106.515625 -12.171875 C 96.546875 -2.828125 82.414062 1.84375 64.125 1.84375 C 45.832031 1.84375 31.726562 -2.800781 21.8125 -12.09375 C 11.894531 -21.394531 6.9375 -35.039062 6.9375 -53.03125 C 6.9375 -71.007812 11.894531 -84.648438 21.8125 -93.953125 C 31.726562 -103.253906 45.832031 -107.90625 64.125 -107.90625 Z M 64.125 -82.46875 C 56.832031 -82.46875 51.285156 -80.257812 47.484375 -75.84375 C 43.679688 -71.425781 41.78125 -65.46875 41.78125 -57.96875 L 41.78125 -48.09375 C 41.78125 -40.59375 43.679688 -34.628906 47.484375 -30.203125 C 51.285156 -25.785156 56.832031 -23.578125 64.125 -23.578125 C 71.425781 -23.578125 77.003906 -25.785156 80.859375 -30.203125 C 84.710938 -34.628906 86.640625 -40.59375 86.640625 -48.09375 L 86.640625 -57.96875 C 86.640625 -65.46875 84.710938 -71.425781 80.859375 -75.84375 C 77.003906 -80.257812 71.425781 -82.46875 64.125 -82.46875 Z M 64.125 -82.46875 "/></g></g></g><g fill="#ffffff" fill-opacity="1"><g transform="translate(817.240808, 224.772972)"><g><path d="M 61.96875 -107.90625 C 77.695312 -107.90625 90.132812 -103.972656 99.28125 -96.109375 C 108.425781 -88.253906 113 -77.03125 113 -62.4375 L 80.46875 -62.4375 C 80.46875 -68.601562 78.847656 -73.484375 75.609375 -77.078125 C 72.367188 -80.671875 67.769531 -82.46875 61.8125 -82.46875 C 54.925781 -82.46875 49.863281 -80.3125 46.625 -76 C 43.394531 -71.6875 41.78125 -65.675781 41.78125 -57.96875 L 41.78125 -48.09375 C 41.78125 -40.488281 43.394531 -34.5 46.625 -30.125 C 49.863281 -25.757812 54.828125 -23.578125 61.515625 -23.578125 C 68.085938 -23.578125 73.066406 -25.273438 76.453125 -28.671875 C 79.847656 -32.066406 81.546875 -36.847656 81.546875 -43.015625 L 113 -43.015625 C 113 -28.523438 108.550781 -17.425781 99.65625 -9.71875 C 90.769531 -2.007812 78.207031 1.84375 61.96875 1.84375 C 43.882812 1.84375 30.191406 -2.773438 20.890625 -12.015625 C 11.585938 -21.265625 6.9375 -34.9375 6.9375 -53.03125 C 6.9375 -71.113281 11.585938 -84.78125 20.890625 -94.03125 C 30.191406 -103.28125 43.882812 -107.90625 61.96875 -107.90625 Z M 61.96875 -107.90625 "/></g></g></g></svg>